<svg width="51" height="19" viewBox="0 0 51 19" fill="none" xmlns="http://www.w3.org/2000/svg">
<path id="Vector" d="M50.7295 0.905518L14.1501 16.9236C11.1167 18.2435 8.56878 18.9055 6.50835 18.9055C4.17499 18.9055 2.48123 18.0656 1.43122 16.3837C0.770802 15.3038 0.57705 13.9347 0.847886 12.2742C1.11872 10.6136 1.83956 8.846 3.00624 6.9648C3.97916 5.44355 5.57292 3.4445 7.79169 0.96551C7.03911 2.18393 6.48724 3.52176 6.15834 4.92504C5.57501 7.48545 6.10001 9.36451 7.73336 10.5644C8.51045 11.1236 9.5792 11.4043 10.9417 11.4043C12.0292 11.4043 13.2542 11.2243 14.6167 10.8643L50.7295 0.905518Z" fill="black"/>
</svg>
